<svg width="200" height="200" viewBox="0 0 200 200" fill="none" xmlns="http://www.w3.org/2000/svg">
<rect width="200" height="200" rx="45" fill="#E0F2FF"/>
<path d="M46.3013 103.419L99.9572 55.3103L153.613 103.419V133.297H46.3013V103.419Z" stroke="#1765CD" stroke-width="20"/>
<path d="M36.3013 80.9457L99.9572 27L163.613 80.9457" stroke="#4491F5" stroke-width="20" stroke-linecap="round" stroke-linejoin="round"/>
<path d="M52.0735 150.368C52.2655 151.616 52.3295 152.896 52.3295 155.104V160.416H41.5455V155.104C41.5455 153.12 41.6095 151.872 41.8015 150.368H34.9215C35.1135 151.744 35.1775 152.896 35.1775 155.104V172.256C35.1775 174.496 35.1135 175.68 34.9215 176.992H41.8015C41.6095 175.552 41.5455 174.336 41.5455 172.256V166.048H52.3295V172.256C52.3295 174.464 52.2655 175.648 52.0735 176.992H58.9535C58.7615 175.424 58.6975 174.336 58.6975 172.256V155.104C58.6975 152.864 58.7615 151.68 58.9535 150.368H52.0735ZM75.4968 164.352C73.1928 164.416 72.2328 164.448 70.9848 164.576C68.1048 164.832 65.9608 165.504 64.3288 166.656C62.7928 167.712 61.9928 169.312 61.9928 171.328C61.9928 173.088 62.6008 174.624 63.7528 175.68C65.0328 176.864 66.8568 177.44 69.2888 177.44C71.9128 177.44 73.7048 176.896 75.4968 175.52V176.992H81.7048C81.5448 175.552 81.4808 174.4 81.4808 172.448V163.808C81.4808 160.928 80.5848 159.168 78.5368 158.048C77.2888 157.376 74.9848 156.928 72.6168 156.928C69.5128 156.928 67.1448 157.536 65.4168 158.752C64.0728 159.712 63.3688 160.736 62.7288 162.624L68.8408 163.616C69.3208 162.048 70.4088 161.376 72.4568 161.376C74.5688 161.376 75.4968 162.08 75.4968 163.616V164.352ZM75.4968 169.344C75.4968 170.304 75.0808 171.168 74.3448 171.808C73.4808 172.544 72.0408 173.024 70.7288 173.024C69.0648 173.024 68.1048 172.352 68.1048 171.2C68.1048 170.272 68.8088 169.472 69.9608 169.088C71.2728 168.672 72.6488 168.512 75.4968 168.448V169.344ZM98.6063 157.472C98.7983 159.136 98.8623 160.48 98.8623 162.272V168.832C97.6143 170.88 95.8223 172.128 94.0623 172.128C93.1343 172.128 92.4303 171.808 91.9823 171.232C91.5983 170.72 91.4703 170.144 91.4703 168.832V162.272C91.4703 160.352 91.5343 159.008 91.7263 157.472H85.0703C85.2303 158.816 85.3263 160.416 85.3263 162.272V170.304C85.3263 172.832 85.8703 174.4 87.1503 175.68C88.3663 176.864 90.0943 177.472 92.2383 177.472C94.9583 177.472 96.7823 176.704 98.8943 174.72C98.8623 174.944 98.8623 175.424 98.8623 175.584V176.96H105.23C105.038 175.68 104.974 174.368 104.974 172.16V162.272C104.974 160.32 105.038 158.976 105.23 157.472H98.6063ZM124.25 157.376C123.226 157.472 122.586 157.472 119.866 157.472H113.114C111.162 157.472 109.882 157.408 108.282 157.248V162.848C109.786 162.688 111.034 162.624 113.114 162.624H115.258C115.482 162.624 116.058 162.624 116.186 162.624C115.898 162.912 115.706 163.136 115.578 163.296L110.394 169.376C109.722 170.144 108.922 171.008 107.674 172.224V177.088C108.698 176.992 109.434 176.992 111.994 176.992H119.994C122.266 176.992 123.354 177.056 124.858 177.216V171.488C123.418 171.648 122.01 171.712 120.026 171.712H116.538C116.218 171.712 115.802 171.712 115.578 171.744C115.834 171.488 115.93 171.36 116.186 171.072L121.53 164.896C122.106 164.224 123.034 163.264 124.25 161.984V157.376ZM142.969 157.376C141.945 157.472 141.305 157.472 138.585 157.472H131.833C129.881 157.472 128.601 157.408 127.001 157.248V162.848C128.505 162.688 129.753 162.624 131.833 162.624H133.977C134.201 162.624 134.777 162.624 134.905 162.624C134.617 162.912 134.425 163.136 134.297 163.296L129.113 169.376C128.441 170.144 127.641 171.008 126.393 172.224V177.088C127.417 176.992 128.153 176.992 130.713 176.992H138.713C140.985 176.992 142.073 177.056 143.577 177.216V171.488C142.137 171.648 140.729 171.712 138.745 171.712H135.257C134.937 171.712 134.521 171.712 134.297 171.744C134.553 171.488 134.649 171.36 134.905 171.072L140.249 164.896C140.825 164.224 141.753 163.264 142.969 161.984V157.376ZM152.472 175.264L151.8 176.64C151.32 177.6 150.424 178.144 149.208 178.144C148.376 178.144 147.768 177.984 146.712 177.44L146.008 182.528C147.768 182.912 148.984 183.072 150.392 183.072C154.04 183.072 156.344 181.696 157.624 178.688L164.952 161.76C166.072 159.136 166.072 159.136 166.872 157.472H159.928C159.736 158.592 159.448 159.52 158.552 161.728L155.704 168.992L152.76 161.6C152.088 159.872 151.672 158.496 151.512 157.472H144.568C144.984 158.272 145.112 158.56 146.488 161.76L152.472 175.264Z" fill="#1765CD"/>
</svg>
